<?xml version="1.0" standalone="no"?>
<!DOCTYPE svg PUBLIC "-//W3C//DTD SVG 20010904//EN"
 "http://www.w3.org/TR/2001/REC-SVG-20010904/DTD/svg10.dtd">
<svg version="1.0" xmlns="http://www.w3.org/2000/svg"
 width="500.000000pt" height="500.000000pt" viewBox="0 0 500.000000 500.000000"
 preserveAspectRatio="xMidYMid meet">
<metadata>
Created by potrace 1.14, written by Peter Selinger 2001-2017
</metadata>
<g transform="translate(0.000000,500.000000) scale(0.100000,-0.100000)"
fill="#000000" stroke="none">
<path d="M2299 4996 c-2 -2 -33 -7 -69 -10 -36 -4 -77 -9 -90 -11 -14 -3 -38
-7 -55 -9 -16 -2 -41 -7 -55 -10 -14 -3 -36 -8 -50 -10 -14 -2 -54 -12 -90
-21 -36 -9 -72 -18 -80 -20 -8 -2 -33 -10 -55 -18 -22 -8 -58 -20 -80 -27 -78
-24 -259 -104 -359 -158 -88 -48 -292 -175 -306 -191 -3 -3 -39 -33 -80 -65
-267 -211 -519 -526 -673 -841 -108 -220 -206 -534 -232 -740 -3 -27 -9 -77
-13 -110 -4 -33 -7 -152 -7 -265 1 -184 5 -261 21 -355 3 -16 7 -41 9 -55 25
-171 96 -404 182 -600 31 -69 59 -130 64 -136 5 -6 22 -36 38 -66 96 -180 249
-380 420 -548 126 -125 137 -135 221 -200 25 -19 47 -37 50 -40 26 -29 266
-175 390 -236 177 -87 454 -180 620 -208 19 -3 46 -8 60 -11 14 -3 45 -8 70
-11 25 -3 56 -8 70 -11 42 -9 461 -11 525 -3 33 5 80 11 105 14 42 6 59 9 120
21 14 2 36 6 50 9 14 2 54 12 90 21 36 9 72 18 80 20 25 5 211 72 277 99 178
74 417 211 541 311 9 7 46 37 82 66 89 71 284 268 356 359 55 69 194 265 194
275 0 2 19 36 43 77 147 252 266 621 304 948 10 86 10 447 0 535 -12 101 -16
132 -22 163 -3 15 -8 41 -11 57 -8 45 -63 252 -84 315 -126 371 -350 724 -636
1000 -95 92 -309 263 -369 296 -11 6 -50 30 -88 53 -220 135 -577 272 -801
305 -21 4 -41 8 -45 10 -3 2 -35 7 -71 11 -36 4 -74 9 -85 12 -24 6 -471 14
-476 9z"/>
</g>
</svg>
